<svg width="20" height="20" viewBox="0 0 20 20" fill="none" xmlns="http://www.w3.org/2000/svg">
<path d="M5.75 4.16602C4.64543 4.16602 3.75 5.06145 3.75 6.16602V16.3327C3.75 17.4373 4.64543 18.3327 5.75 18.3327H14.25C15.3546 18.3327 16.25 17.4373 16.25 16.3327V6.16602C16.25 5.06145 15.3546 4.16602 14.25 4.16602H5.75Z" stroke="#A80000" stroke-width="1.5" stroke-linejoin="round"/>
<path d="M8.33301 8.33203V13.7487" stroke="#A80000" stroke-width="1.5" stroke-linejoin="round"/>
<path d="M11.6665 8.33203V13.7487" stroke="#A80000" stroke-width="1.5" stroke-linejoin="round"/>
<path d="M1.6665 4.16602H18.3332" stroke="#A80000" stroke-width="1.5" stroke-linecap="round" stroke-linejoin="round"/>
<path d="M8.77719 4.16602C7.82721 4.16602 7.22443 3.14819 7.68107 2.31517C7.9005 1.91487 8.32069 1.66602 8.77719 1.66602H11.2428C11.7031 1.66602 12.1262 1.919 12.344 2.32452C12.7913 3.15727 12.1881 4.16602 11.2428 4.16602H8.77719Z" stroke="#A80000" stroke-width="1.5" stroke-linejoin="round"/>
</svg>
