<svg width="20" height="20" viewBox="0 0 20 20" fill="none" xmlns="http://www.w3.org/2000/svg">
<path d="M7.91699 4.16732V4.08398C7.91699 2.97942 8.81242 2.08398 9.91699 2.08398H15.917C17.0216 2.08398 17.917 2.97941 17.917 4.08398V10.9173C17.917 12.0219 17.0216 12.9173 15.917 12.9173H15.417" stroke="#203209" stroke-width="1.5" stroke-linecap="round" stroke-linejoin="round"/>
<path d="M4.0835 7.5V8.25H10.0835V7.5V6.75H4.0835V7.5ZM12.0835 9.5H11.3335V15.5H12.0835H12.8335V9.5H12.0835ZM10.0835 17.5V16.75H4.0835V17.5V18.25H10.0835V17.5ZM2.0835 15.5H2.8335V9.5H2.0835H1.3335V15.5H2.0835ZM4.0835 17.5V16.75C3.39314 16.75 2.8335 16.1904 2.8335 15.5H2.0835H1.3335C1.3335 17.0188 2.56471 18.25 4.0835 18.25V17.5ZM12.0835 15.5H11.3335C11.3335 16.1904 10.7739 16.75 10.0835 16.75V17.5V18.25C11.6023 18.25 12.8335 17.0188 12.8335 15.5H12.0835ZM10.0835 7.5V8.25C10.7739 8.25 11.3335 8.80964 11.3335 9.5H12.0835H12.8335C12.8335 7.98122 11.6023 6.75 10.0835 6.75V7.5ZM4.0835 7.5V6.75C2.56471 6.75 1.3335 7.98122 1.3335 9.5H2.0835H2.8335C2.8335 8.80964 3.39314 8.25 4.0835 8.25V7.5Z" fill="#203209"/>
<path d="M7.0835 10.418V14.5846" stroke="#203209" stroke-width="1.5" stroke-linejoin="round"/>
<path d="M5 12.5H9.16667" stroke="#203209" stroke-width="1.5" stroke-linejoin="round"/>
</svg>
