<svg width="20" height="20" viewBox="0 0 20 20" fill="none" xmlns="http://www.w3.org/2000/svg">
<g clip-path="url(#clip0_276_28337)">
<path d="M3.3335 14.9987L3.33542 11.6831C3.33579 11.4531 3.5223 11.2667 3.75233 11.2664C5.14147 11.2664 6.53064 11.2664 7.91981 11.2664C8.30376 11.2664 8.30172 10.9259 8.30172 10.115C8.30172 9.3042 6.25939 8.62124 6.25939 5.7707C6.25939 2.92016 8.37514 2.08203 10.1335 2.08203C11.8919 2.08203 13.8071 2.92016 13.8071 5.7707C13.8071 8.62124 11.7755 9.07445 11.7755 10.115C11.7755 11.1556 11.7755 11.2664 12.1007 11.2664C13.4839 11.2664 14.8671 11.2664 16.2503 11.2664C16.4804 11.2664 16.667 11.453 16.667 11.6831V14.9987H3.3335Z" stroke="#203209" stroke-width="1.5" stroke-linejoin="round"/>
<path d="M3.3335 17.5H16.6668" stroke="#203209" stroke-width="1.5" stroke-linecap="round" stroke-linejoin="round"/>
</g>
<defs>
<clipPath id="clip0_276_28337">
<rect width="20" height="20" fill="white"/>
</clipPath>
</defs>
</svg>
