<svg width="20" height="20" viewBox="0 0 20 20" fill="none" xmlns="http://www.w3.org/2000/svg">
<path d="M3.3335 18.3327H16.6668V5.83268L12.5002 1.66602H3.3335V18.3327Z" stroke="#203209" stroke-width="1.5" stroke-linejoin="round"/>
<path d="M9.51635 15.9067C9.4178 15.9067 9.33717 15.8761 9.27445 15.8149C9.21173 15.7536 9.18038 15.6749 9.18038 15.5786V14.6729C8.49946 14.5942 7.93054 14.4323 7.47361 14.1873C7.01668 13.9335 6.67174 13.6273 6.4388 13.2685C6.20585 12.9097 6.08042 12.5335 6.0625 12.1397C6.0625 12.0697 6.08938 12.0085 6.14313 11.9559C6.20585 11.8947 6.27753 11.8641 6.35816 11.8641H7.79615C7.91262 11.8641 8.00221 11.8903 8.06493 11.9428C8.12765 11.9866 8.18588 12.0435 8.23964 12.1135C8.30235 12.2622 8.40091 12.4066 8.5353 12.5466C8.67865 12.6866 8.87128 12.8047 9.11318 12.901C9.35508 12.9885 9.65523 13.0322 10.0136 13.0322C10.596 13.0322 11.0305 12.9404 11.3172 12.7566C11.6129 12.5728 11.7607 12.3235 11.7607 12.0085C11.7607 11.7809 11.6801 11.5972 11.5188 11.4572C11.3665 11.3172 11.1201 11.1903 10.7796 11.0765C10.4481 10.9628 10.0002 10.8403 9.43572 10.709C8.76376 10.569 8.19484 10.3896 7.72895 10.1709C7.26306 9.94337 6.90916 9.6546 6.66726 9.30459C6.43432 8.94582 6.31784 8.50393 6.31784 7.97891C6.31784 7.28763 6.56871 6.70136 7.07043 6.22009C7.58112 5.73882 8.28443 5.44131 9.18038 5.32755V4.42189C9.18038 4.32563 9.21173 4.24688 9.27445 4.18563C9.33717 4.12438 9.4178 4.09375 9.51635 4.09375H10.4705C10.5601 4.09375 10.6363 4.12438 10.699 4.18563C10.7617 4.24688 10.7931 4.32563 10.7931 4.42189V5.3538C11.4113 5.45006 11.9264 5.63381 12.3386 5.90507C12.7597 6.16759 13.0777 6.46947 13.2927 6.81074C13.5167 7.14325 13.6332 7.46701 13.6422 7.78203C13.6422 7.85203 13.6153 7.91766 13.5615 7.97891C13.5078 8.03141 13.4406 8.05766 13.3599 8.05766H11.8413C11.7607 8.05766 11.6845 8.04016 11.6129 8.00516C11.5412 7.97016 11.4785 7.90891 11.4247 7.8214C11.3799 7.59389 11.2231 7.39701 10.9543 7.23075C10.6856 7.05575 10.3451 6.96824 9.93297 6.96824C9.49396 6.96824 9.14454 7.047 8.88472 7.2045C8.62489 7.36201 8.49498 7.60264 8.49498 7.92641C8.49498 8.13642 8.56218 8.3158 8.69657 8.46456C8.83096 8.60456 9.05046 8.73144 9.35508 8.8452C9.65971 8.9502 10.0718 9.06833 10.5915 9.19959C11.3799 9.35709 12.0205 9.54522 12.5133 9.76398C13.006 9.98274 13.3644 10.2671 13.5884 10.6171C13.8214 10.9584 13.9378 11.3916 13.9378 11.9166C13.9378 12.4241 13.8079 12.8747 13.5481 13.2685C13.2883 13.6535 12.9209 13.9642 12.4461 14.2004C11.9802 14.4367 11.4292 14.5942 10.7931 14.6729V15.5786C10.7931 15.6749 10.7617 15.7536 10.699 15.8149C10.6363 15.8761 10.5601 15.9067 10.4705 15.9067H9.51635Z" fill="#203209"/>
</svg>
