<svg width="20" height="20" viewBox="0 0 20 20" fill="none" xmlns="http://www.w3.org/2000/svg">
<g clip-path="url(#clip0_220_17434)">
<path d="M6.97002 11.2493C7.98012 10.2392 8.99022 9.7342 10.0003 9.7342C11.0104 9.7342 12.0205 10.2392 13.0306 11.2493C14.2091 10.2392 15.0929 9.7342 15.6821 9.7342C16.2714 9.7342 17.1552 10.2392 18.3337 11.2493C18.3337 6.64698 14.6027 2.91602 10.0003 2.91602C5.39795 2.91602 1.66699 6.64698 1.66699 11.2493C2.84544 10.2392 3.72928 9.7342 4.31851 9.7342C4.90773 9.7342 5.79157 10.2392 6.97002 11.2493Z" stroke="#203209" stroke-width="1.5" stroke-linejoin="round"/>
<path d="M10 10V16.064C10 17.3199 11.0358 18.338 12.2917 18.338C13.5476 18.338 14.5833 17.3199 14.5833 16.064" stroke="#203209" stroke-width="1.5" stroke-linecap="round" stroke-linejoin="round"/>
<path d="M10 1.25V2.91667" stroke="#203209" stroke-width="1.5" stroke-linecap="round" stroke-linejoin="round"/>
</g>
<defs>
<clipPath id="clip0_220_17434">
<rect width="20" height="20" fill="white"/>
</clipPath>
</defs>
</svg>
