<svg width="20" height="20" viewBox="0 0 20 20" fill="none" xmlns="http://www.w3.org/2000/svg">
<path d="M5.41699 4.16602V3.41602C5.00278 3.41602 4.66699 3.7518 4.66699 4.16602H5.41699ZM17.0837 4.16602H17.8337C17.8337 3.7518 17.4979 3.41602 17.0837 3.41602V4.16602ZM17.0837 18.3327V19.0827C17.4979 19.0827 17.8337 18.7469 17.8337 18.3327H17.0837ZM5.41699 18.3327H4.66699C4.66699 18.7469 5.00278 19.0827 5.41699 19.0827V18.3327ZM5.41699 4.16602V4.91602H17.0837V4.16602V3.41602H5.41699V4.16602ZM17.0837 4.16602H16.3337V18.3327H17.0837H17.8337V4.16602H17.0837ZM17.0837 18.3327V17.5827H5.41699V18.3327V19.0827H17.0837V18.3327ZM5.41699 18.3327H6.16699V4.16602H5.41699H4.66699V18.3327H5.41699Z" fill="#203209"/>
<path d="M14.5837 4.16602V1.66602H3.91699C3.36471 1.66602 2.91699 2.11373 2.91699 2.66602V15.8327H5.41699" stroke="#203209" stroke-width="1.5" stroke-linecap="round" stroke-linejoin="round"/>
<path d="M8.75 8H13.75" stroke="#203209" stroke-width="1.5" stroke-linecap="round" stroke-linejoin="round"/>
<path d="M8.75 11.3301H13.75" stroke="#203209" stroke-width="1.5" stroke-linecap="round" stroke-linejoin="round"/>
<path d="M8.75 14.6602H13.75" stroke="#203209" stroke-width="1.5" stroke-linecap="round" stroke-linejoin="round"/>
</svg>
